<svg width="1374" height="705" viewBox="0 0 1374 705" fill="none" xmlns="http://www.w3.org/2000/svg">
<path d="M374.099 612.171V684.065H359.679V612.171H374.099ZM507.929 612.171V684.065H493.509V637.303L474.248 684.065H463.33L443.966 637.303V684.065H429.546V612.171H445.923L468.789 665.628L491.655 612.171H507.929ZM596.758 684.786C590.028 684.786 583.848 683.207 578.218 680.048C572.587 676.889 568.124 672.529 564.828 666.967C561.532 661.336 559.884 654.985 559.884 647.912C559.884 640.908 561.532 634.625 564.828 629.063C568.124 623.432 572.587 619.038 578.218 615.879C583.848 612.72 590.028 611.141 596.758 611.141C603.556 611.141 609.736 612.72 615.298 615.879C620.928 619.038 625.357 623.432 628.585 629.063C631.881 634.625 633.529 640.908 633.529 647.912C633.529 654.985 631.881 661.336 628.585 666.967C625.357 672.529 620.928 676.889 615.298 680.048C609.667 683.207 603.487 684.786 596.758 684.786ZM596.758 671.911C601.084 671.911 604.895 670.95 608.191 669.027C611.487 667.036 614.062 664.22 615.916 660.581C617.77 656.942 618.697 652.719 618.697 647.912C618.697 643.105 617.77 638.917 615.916 635.346C614.062 631.707 611.487 628.926 608.191 627.003C604.895 625.08 601.084 624.119 596.758 624.119C592.432 624.119 588.586 625.08 585.222 627.003C581.926 628.926 579.351 631.707 577.497 635.346C575.643 638.917 574.716 643.105 574.716 647.912C574.716 652.719 575.643 656.942 577.497 660.581C579.351 664.22 581.926 667.036 585.222 669.027C588.586 670.95 592.432 671.911 596.758 671.911ZM607.985 597.236L584.295 608.051V597.751L607.985 585.494V597.236ZM750.038 612.171L723.67 684.065H706.16L679.792 612.171H695.242L715.018 669.336L734.691 612.171H750.038ZM814.303 623.81V641.835H838.508V653.268H814.303V672.323H841.598V684.065H799.883V612.068H841.598V623.81H814.303ZM910.323 612.171V684.065H895.903V612.171H910.323ZM990.592 684.786C985.58 684.786 981.048 683.928 976.996 682.211C973.014 680.494 969.855 678.022 967.52 674.795C965.186 671.568 963.984 667.757 963.915 663.362H979.365C979.571 666.315 980.601 668.649 982.455 670.366C984.378 672.083 986.987 672.941 990.283 672.941C993.648 672.941 996.292 672.151 998.214 670.572C1000.14 668.924 1001.1 666.795 1001.1 664.186C1001.1 662.057 1000.45 660.306 999.141 658.933C997.837 657.56 996.189 656.495 994.197 655.74C992.275 654.916 989.597 654.023 986.163 653.062C981.494 651.689 977.683 650.35 974.73 649.045C971.846 647.672 969.34 645.646 967.211 642.968C965.151 640.221 964.121 636.582 964.121 632.05C964.121 627.793 965.186 624.085 967.314 620.926C969.443 617.767 972.43 615.364 976.275 613.716C980.121 611.999 984.515 611.141 989.459 611.141C996.875 611.141 1002.88 612.961 1007.48 616.6C1012.15 620.171 1014.73 625.183 1015.21 631.638H999.347C999.21 629.166 998.146 627.14 996.154 625.561C994.232 623.913 991.657 623.089 988.429 623.089C985.614 623.089 983.348 623.81 981.631 625.252C979.983 626.694 979.159 628.788 979.159 631.535C979.159 633.458 979.777 635.071 981.013 636.376C982.318 637.612 983.897 638.642 985.751 639.466C987.674 640.221 990.352 641.114 993.785 642.144C998.455 643.517 1002.27 644.891 1005.22 646.264C1008.17 647.637 1010.71 649.697 1012.84 652.444C1014.97 655.191 1016.03 658.796 1016.03 663.259C1016.03 667.104 1015.04 670.675 1013.05 673.971C1011.06 677.267 1008.14 679.911 1004.29 681.902C1000.45 683.825 995.88 684.786 990.592 684.786Z" fill="black"/>
<path d="M158.5 301.565L606.5 17.5649L1056 301.565M715.5 78.5649L803 17.5649L1226.5 301.565M315 192.565V68.5649H400V140.065" stroke="black" stroke-width="29"/>
<path d="M264.301 387.59C279.471 387.59 292.728 390.528 304.071 396.405C315.551 402.145 324.366 410.482 330.516 421.415C336.803 432.212 339.946 444.853 339.946 459.34C339.946 473.827 336.803 486.4 330.516 497.06C324.366 507.72 315.551 515.92 304.071 521.66C292.728 527.263 279.471 530.065 264.301 530.065H217.766V387.59H264.301ZM264.301 511C280.975 511 293.753 506.49 302.636 497.47C311.52 488.45 315.961 475.74 315.961 459.34C315.961 442.803 311.52 429.888 302.636 420.595C293.753 411.302 280.975 406.655 264.301 406.655H241.136V511H264.301ZM470.528 387.59V530.065H447.158V387.59H470.528ZM671.156 500.955H611.501L601.251 530.065H576.856L627.901 387.385H654.961L706.006 530.065H681.406L671.156 500.955ZM664.596 481.89L641.431 415.675L618.061 481.89H664.596ZM929.305 530.065H905.935L835.62 423.67V530.065H812.25V387.385H835.62L905.935 493.575V387.385H929.305V530.065ZM1129.94 500.955H1070.28L1060.03 530.065H1035.64L1086.68 387.385H1113.74L1164.79 530.065H1140.19L1129.94 500.955ZM1123.38 481.89L1100.21 415.675L1076.84 481.89H1123.38Z" fill="black"/>
</svg>
