<svg width="430" height="440" viewBox="0 0 430 440" fill="none" xmlns="http://www.w3.org/2000/svg">
<path d="M430 220C430 341.503 333.741 440 215 440C96.2588 440 0 341.503 0 220C0 98.4974 96.2588 0 215 0C333.741 0 430 98.4974 430 220Z" fill="white"/>
<path d="M110.784 290.77V315.79H106.68V290.77H110.784ZM156.924 290.77V315.79H152.82V298.654L145.188 315.79H142.344L134.676 298.654V315.79H130.572V290.77H135L143.784 310.39L152.532 290.77H156.924ZM188.13 316.042C185.802 316.042 183.654 315.502 181.686 314.422C179.742 313.318 178.194 311.794 177.042 309.85C175.914 307.882 175.35 305.674 175.35 303.226C175.35 300.778 175.914 298.582 177.042 296.638C178.194 294.694 179.742 293.182 181.686 292.102C183.654 290.998 185.802 290.446 188.13 290.446C190.482 290.446 192.63 290.998 194.574 292.102C196.542 293.182 198.09 294.694 199.218 296.638C200.346 298.582 200.91 300.778 200.91 303.226C200.91 305.674 200.346 307.882 199.218 309.85C198.09 311.794 196.542 313.318 194.574 314.422C192.63 315.502 190.482 316.042 188.13 316.042ZM188.13 312.478C189.786 312.478 191.262 312.106 192.558 311.362C193.854 310.594 194.862 309.514 195.582 308.122C196.326 306.706 196.698 305.074 196.698 303.226C196.698 301.378 196.326 299.758 195.582 298.366C194.862 296.974 193.854 295.906 192.558 295.162C191.262 294.418 189.786 294.046 188.13 294.046C186.474 294.046 184.998 294.418 183.702 295.162C182.406 295.906 181.386 296.974 180.642 298.366C179.922 299.758 179.562 301.378 179.562 303.226C179.562 305.074 179.922 306.706 180.642 308.122C181.386 309.514 182.406 310.594 183.702 311.362C184.998 312.106 186.474 312.478 188.13 312.478ZM191.838 285.406L183.882 289.33V286.306L191.838 281.914V285.406ZM240.912 290.77L231.516 315.79H226.764L217.332 290.77H221.724L229.14 311.578L236.592 290.77H240.912ZM262.849 294.082V301.426H271.489V304.774H262.849V312.442H272.569V315.79H258.745V290.734H272.569V294.082H262.849ZM296.127 290.77V315.79H292.023V290.77H296.127ZM324.16 316.042C322.48 316.042 320.968 315.754 319.624 315.178C318.28 314.578 317.224 313.738 316.456 312.658C315.688 311.578 315.304 310.318 315.304 308.878H319.696C319.792 309.958 320.212 310.846 320.956 311.542C321.724 312.238 322.792 312.586 324.16 312.586C325.576 312.586 326.68 312.25 327.472 311.578C328.264 310.882 328.66 309.994 328.66 308.914C328.66 308.074 328.408 307.39 327.904 306.862C327.424 306.334 326.812 305.926 326.068 305.638C325.348 305.35 324.34 305.038 323.044 304.702C321.412 304.27 320.08 303.838 319.048 303.406C318.04 302.95 317.176 302.254 316.456 301.318C315.736 300.382 315.376 299.134 315.376 297.574C315.376 296.134 315.736 294.874 316.456 293.794C317.176 292.714 318.184 291.886 319.48 291.31C320.776 290.734 322.276 290.446 323.98 290.446C326.404 290.446 328.384 291.058 329.92 292.282C331.48 293.482 332.344 295.138 332.512 297.25H327.976C327.904 296.338 327.472 295.558 326.68 294.91C325.888 294.262 324.844 293.938 323.548 293.938C322.372 293.938 321.412 294.238 320.668 294.838C319.924 295.438 319.552 296.302 319.552 297.43C319.552 298.198 319.78 298.834 320.236 299.338C320.716 299.818 321.316 300.202 322.036 300.49C322.756 300.778 323.74 301.09 324.988 301.426C326.644 301.882 327.988 302.338 329.02 302.794C330.076 303.25 330.964 303.958 331.684 304.918C332.428 305.854 332.8 307.114 332.8 308.698C332.8 309.97 332.452 311.17 331.756 312.298C331.084 313.426 330.088 314.338 328.768 315.034C327.472 315.706 325.936 316.042 324.16 316.042Z" fill="black"/>
<path d="M56.6807 195.221L194.276 110L332.332 195.221M227.753 128.304L254.628 110L384.698 195.221M104.747 162.513V125.304H130.853V146.759" stroke="black" stroke-width="8"/>
<path d="M95.2833 220.271C99.7233 220.271 103.603 221.131 106.923 222.851C110.283 224.531 112.863 226.971 114.663 230.171C116.503 233.331 117.423 237.031 117.423 241.271C117.423 245.511 116.503 249.191 114.663 252.311C112.863 255.431 110.283 257.831 106.923 259.511C103.603 261.151 99.7233 261.971 95.2833 261.971H81.6633V220.271H95.2833ZM95.2833 256.391C100.163 256.391 103.903 255.071 106.503 252.431C109.103 249.791 110.403 246.071 110.403 241.271C110.403 236.431 109.103 232.651 106.503 229.931C103.903 227.211 100.163 225.851 95.2833 225.851H88.5033V256.391H95.2833ZM155.642 220.271V261.971H148.802V220.271H155.642ZM214.363 253.451H196.903L193.903 261.971H186.763L201.703 220.211H209.623L224.563 261.971H217.363L214.363 253.451ZM212.443 247.871L205.663 228.491L198.823 247.871H212.443ZM289.919 261.971H283.079L262.499 230.831V261.971H255.659V220.211H262.499L283.079 251.291V220.211H289.919V261.971ZM348.641 253.451H331.181L328.181 261.971H321.041L335.981 220.211H343.901L358.841 261.971H351.641L348.641 253.451ZM346.721 247.871L339.941 228.491L333.101 247.871H346.721Z" fill="black"/>
</svg>
