<svg width="430" height="440" viewBox="0 0 430 440" fill="none" xmlns="http://www.w3.org/2000/svg">
<path d="M430 220C430 341.503 333.741 440 215 440C96.2588 440 0 341.503 0 220C0 98.4974 96.2588 0 215 0C333.741 0 430 98.4974 430 220Z" fill="white"/>
<path d="M130.353 284.28V304.906H127.758V284.28H130.353ZM166.346 284.427V304.906H163.751V289.636L157.191 304.906H155.366L148.778 289.607V304.906H146.183V284.427H148.978L156.279 301.355L163.579 284.427H166.346ZM191.166 305.113C189.322 305.113 187.639 304.669 186.118 303.782C184.597 302.874 183.39 301.622 182.496 300.023C181.622 298.406 181.185 296.591 181.185 294.578C181.185 292.566 181.622 290.76 182.496 289.163C183.39 287.544 184.597 286.292 186.118 285.404C187.639 284.497 189.322 284.043 191.166 284.043C193.029 284.043 194.721 284.497 196.241 285.404C197.762 286.292 198.961 287.535 199.835 289.133C200.709 290.731 201.147 292.546 201.147 294.578C201.147 296.611 200.709 298.425 199.835 300.023C198.961 301.622 197.762 302.874 196.241 303.782C194.721 304.669 193.029 305.113 191.166 305.113ZM191.166 302.775C192.553 302.775 193.799 302.44 194.902 301.769C196.023 301.098 196.898 300.142 197.525 298.899C198.172 297.656 198.494 296.215 198.494 294.578C198.494 292.92 198.172 291.481 197.525 290.258C196.898 289.015 196.033 288.058 194.93 287.387C193.827 286.716 192.572 286.381 191.166 286.381C189.759 286.381 188.504 286.716 187.401 287.387C186.299 288.058 185.424 289.015 184.777 290.258C184.15 291.481 183.837 292.92 183.837 294.578C183.837 296.215 184.15 297.656 184.777 298.899C185.424 300.142 186.299 301.098 187.401 301.769C188.523 302.44 189.778 302.775 191.166 302.775ZM194.017 279.811L187.943 283.184V281.173L194.017 277.473V279.811ZM232.407 284.28L224.906 304.906H221.911L214.411 284.28H217.177L223.423 302.065L229.668 284.28H232.407ZM249.254 286.47V293.365H256.497V295.584H249.254V302.687H257.354V304.906H246.659V284.25H257.354V286.47H249.254ZM275.283 284.28V304.906H272.687V284.28H275.283ZM297.415 305.113C296.103 305.113 294.925 304.876 293.879 304.403C292.852 303.91 292.044 303.239 291.455 302.39C290.866 301.523 290.561 300.526 290.542 299.402H293.308C293.403 300.368 293.784 301.187 294.449 301.858C295.133 302.509 296.122 302.834 297.415 302.834C298.651 302.834 299.62 302.519 300.324 301.888C301.046 301.237 301.407 300.408 301.407 299.402C301.407 298.613 301.199 297.971 300.78 297.478C300.362 296.985 299.839 296.61 299.212 296.354C298.584 296.097 297.738 295.821 296.673 295.525C295.362 295.17 294.307 294.814 293.508 294.46C292.729 294.105 292.054 293.552 291.483 292.803C290.932 292.033 290.656 291.008 290.656 289.725C290.656 288.6 290.932 287.604 291.483 286.736C292.035 285.868 292.805 285.197 293.793 284.724C294.801 284.25 295.951 284.013 297.244 284.013C299.107 284.013 300.628 284.497 301.807 285.463C303.004 286.43 303.679 287.713 303.832 289.31H300.98C300.885 288.521 300.486 287.831 299.782 287.239C299.079 286.627 298.147 286.321 296.987 286.321C295.903 286.321 295.02 286.618 294.335 287.209C293.651 287.781 293.308 288.591 293.308 289.636C293.308 290.386 293.508 290.997 293.907 291.471C294.326 291.945 294.829 292.309 295.419 292.566C296.028 292.803 296.873 293.079 297.957 293.395C299.268 293.769 300.324 294.145 301.122 294.519C301.921 294.874 302.605 295.436 303.176 296.206C303.746 296.956 304.031 297.981 304.031 299.283C304.031 300.289 303.774 301.237 303.261 302.124C302.748 303.012 301.988 303.732 300.98 304.284C299.972 304.837 298.784 305.113 297.415 305.113Z" fill="black"/>
<path d="M74.0361 210.102L193.049 122L312.459 210.102M220.929 142.57L245.249 122L357.752 210.102M115.611 179.325V137.821H138.192V162.609" stroke="black" stroke-width="3" stroke-linecap="round"/>
<path d="M108.948 222.249C112.944 222.249 116.397 223.029 119.306 224.589C122.25 226.114 124.493 228.311 126.035 231.178C127.612 234.046 128.401 237.422 128.401 241.305C128.401 245.189 127.612 248.565 126.035 251.432C124.493 254.263 122.25 256.441 119.306 257.965C116.397 259.453 112.944 260.199 108.948 260.199H97.5391V222.249H108.948ZM161.054 260.199H156.269V222.249H161.054V260.199ZM220.418 260.199H215.37L212.426 251.758H196.442L193.498 260.199H188.45L201.7 222.466H207.221L220.418 260.199ZM271.776 252.358V222.194H276.561V260.199H271.776L252.532 229.98V260.199H247.749V222.194H252.532L271.776 252.358ZM335.928 260.199H330.881L327.936 251.758H311.953L309.009 260.199H303.958L317.21 222.466H322.731L335.928 260.199ZM102.324 256.115H108.948C113.68 256.115 117.29 254.827 119.778 252.25C122.267 249.636 123.512 245.987 123.512 241.305C123.512 236.587 122.25 232.902 119.727 230.252C117.238 227.603 113.645 226.278 108.948 226.278H102.324V256.115ZM197.81 247.73H211.059L204.435 228.565L197.81 247.73ZM313.319 247.73H326.568L319.944 228.565L313.319 247.73Z" fill="black"/>
<path d="M108.948 222.249C112.944 222.249 116.397 223.029 119.306 224.589C122.25 226.114 124.493 228.311 126.035 231.178C127.612 234.046 128.401 237.422 128.401 241.305C128.401 245.189 127.612 248.565 126.035 251.432C124.493 254.263 122.25 256.441 119.306 257.965C116.397 259.453 112.944 260.199 108.948 260.199H97.5391V222.249H108.948ZM161.054 260.199H156.269V222.249H161.054V260.199ZM220.418 260.199H215.37L212.426 251.758H196.442L193.498 260.199H188.45L201.7 222.466H207.221L220.418 260.199ZM271.776 252.358V222.194H276.561V260.199H271.776L252.532 229.98V260.199H247.749V222.194H252.532L271.776 252.358ZM335.928 260.199H330.881L327.936 251.758H311.953L309.009 260.199H303.958L317.21 222.466H322.731L335.928 260.199ZM102.324 256.115H108.948C113.68 256.115 117.29 254.827 119.778 252.25C122.267 249.636 123.512 245.987 123.512 241.305C123.512 236.587 122.25 232.902 119.727 230.252C117.238 227.603 113.645 226.278 108.948 226.278H102.324V256.115ZM197.81 247.73H211.059L204.435 228.565L197.81 247.73ZM313.319 247.73H326.568L319.944 228.565L313.319 247.73Z" stroke="black"/>
</svg>
