<svg width="506" height="440" viewBox="0 0 506 440" fill="none" xmlns="http://www.w3.org/2000/svg">
<path d="M468 220C468 341.503 371.741 440 253 440C134.259 440 38 341.503 38 220C38 98.4974 134.259 0 253 0C371.741 0 468 98.4974 468 220Z" fill="white"/>
<path d="M116.71 308.215V339.103H109.186V308.215H116.71ZM175.183 308.215V339.103H167.659V320.579L160.751 339.103H154.679L147.727 320.535V339.103H140.203V308.215H149.091L157.759 329.599L166.339 308.215H175.183ZM213.241 339.411C210.337 339.411 207.668 338.736 205.233 337.387C202.828 336.037 200.907 334.16 199.469 331.755C198.061 329.32 197.357 326.592 197.357 323.571C197.357 320.549 198.061 317.836 199.469 315.431C200.907 313.025 202.828 311.148 205.233 309.799C207.668 308.449 210.337 307.775 213.241 307.775C216.145 307.775 218.8 308.449 221.205 309.799C223.64 311.148 225.547 313.025 226.925 315.431C228.333 317.836 229.037 320.549 229.037 323.571C229.037 326.592 228.333 329.32 226.925 331.755C225.517 334.16 223.611 336.037 221.205 337.387C218.8 338.736 216.145 339.411 213.241 339.411ZM213.241 332.547C215.705 332.547 217.671 331.725 219.137 330.083C220.633 328.44 221.381 326.269 221.381 323.571C221.381 320.843 220.633 318.672 219.137 317.059C217.671 315.416 215.705 314.595 213.241 314.595C210.748 314.595 208.753 315.401 207.257 317.015C205.791 318.628 205.057 320.813 205.057 323.571C205.057 326.299 205.791 328.484 207.257 330.127C208.753 331.74 210.748 332.547 213.241 332.547ZM218.345 302.011L207.741 306.455V301.263L218.345 296.159V302.011ZM280.259 308.215L269.303 339.103H259.887L248.931 308.215H256.939L264.595 331.535L272.295 308.215H280.259ZM308.968 314.243V320.491H319.044V326.299H308.968V333.075H320.364V339.103H301.444V308.215H320.364V314.243H308.968ZM350.812 308.215V339.103H343.288V308.215H350.812ZM385.481 339.411C383.222 339.411 381.198 339.044 379.409 338.311C377.62 337.577 376.182 336.492 375.097 335.055C374.041 333.617 373.484 331.887 373.425 329.863H381.433C381.55 331.007 381.946 331.887 382.621 332.503C383.296 333.089 384.176 333.383 385.261 333.383C386.376 333.383 387.256 333.133 387.901 332.635C388.546 332.107 388.869 331.388 388.869 330.479C388.869 329.716 388.605 329.085 388.077 328.587C387.578 328.088 386.948 327.677 386.185 327.355C385.452 327.032 384.396 326.665 383.017 326.255C381.022 325.639 379.394 325.023 378.133 324.407C376.872 323.791 375.786 322.881 374.877 321.679C373.968 320.476 373.513 318.907 373.513 316.971C373.513 314.096 374.554 311.852 376.637 310.239C378.72 308.596 381.433 307.775 384.777 307.775C388.18 307.775 390.922 308.596 393.005 310.239C395.088 311.852 396.202 314.111 396.349 317.015H388.209C388.15 316.017 387.784 315.24 387.109 314.683C386.434 314.096 385.569 313.803 384.513 313.803C383.604 313.803 382.87 314.052 382.313 314.551C381.756 315.02 381.477 315.709 381.477 316.619C381.477 317.616 381.946 318.393 382.885 318.951C383.824 319.508 385.29 320.109 387.285 320.755C389.28 321.429 390.893 322.075 392.125 322.691C393.386 323.307 394.472 324.201 395.381 325.375C396.29 326.548 396.745 328.059 396.745 329.907C396.745 331.667 396.29 333.265 395.381 334.703C394.501 336.14 393.21 337.284 391.509 338.135C389.808 338.985 387.798 339.411 385.481 339.411Z" fill="black"/>
<path d="M58.3701 196.111L223.354 84L388.89 196.111M263.495 108.08L295.719 84L451.68 196.111M116.004 153.082V104.133H147.307V132.358" stroke="black" stroke-width="16"/>
<path d="M101.767 225.66C106.873 225.66 111.335 226.672 115.153 228.696C118.971 230.72 121.915 233.572 123.985 237.252C126.101 240.886 127.159 245.095 127.159 249.879C127.159 254.617 126.101 258.826 123.985 262.506C121.915 266.186 118.948 269.038 115.084 271.062C111.266 273.086 106.827 274.098 101.767 274.098H83.6204V225.66H101.767ZM101.008 263.886C105.47 263.886 108.943 262.667 111.427 260.229C113.911 257.791 115.153 254.341 115.153 249.879C115.153 245.417 113.911 241.944 111.427 239.46C108.943 236.976 105.47 235.734 101.008 235.734H95.4194V263.886H101.008ZM176.602 225.66V274.098H164.803V225.66H176.602ZM246.356 265.542H228.278L225.38 274.098H213.029L230.555 225.66H244.217L261.743 274.098H249.254L246.356 265.542ZM243.32 256.434L237.317 238.701L231.383 256.434H243.32ZM341.459 274.098H329.66L309.926 244.221V274.098H298.127V225.66H309.926L329.66 255.675V225.66H341.459V274.098ZM411.215 265.542H393.137L390.239 274.098H377.888L395.414 225.66H409.076L426.602 274.098H414.113L411.215 265.542ZM408.179 256.434L402.176 238.701L396.242 256.434H408.179Z" fill="black"/>
</svg>
